Coordinates
version=1
nRows=49
nColumns=12
inDegrees=yes

Units are S.I. units (second, meters, Newtons, ...)
Angles are in degrees

endheader
time	SC_y	SC_z	SC_x	AC_y	AC_z	AC_x	GH_y	GH_z	GH_yy	EL_x	PS_y
       0.0              -59.93          24.03           68.7          42.65         -3.528          14.95           9.31          83.88           98.6          63.93          8.023
   0.04294              -59.93          24.02           68.7          42.65         -3.528          14.95          9.323          83.88           98.6          63.94          8.028
   0.08589              -59.93          24.02           68.7          42.66         -3.528          14.94          9.337          83.87           98.6          63.95          8.033
    0.1288              -59.93          24.01           68.7          42.66         -3.528          14.94          9.352          83.87           98.6          63.96          8.039
    0.1718              -59.93          24.01          68.69          42.66         -3.528          14.94          9.368          83.86          98.59          63.97          8.045
    0.2147              -59.93           24.0          68.69          42.66         -3.528          14.94          9.385          83.86          98.59          63.98          8.051
    0.2577              -59.93           24.0          68.69          42.66         -3.528          14.94          9.403          83.85          98.59           64.0          8.058
    0.3006              -59.93          23.99          68.68          42.67         -3.528          14.93          9.422          83.85          98.58          64.01          8.065
    0.3436              -59.93          23.99          68.68          42.67         -3.528          14.93          9.443          83.84          98.58          64.03          8.072
    0.3865              -59.93          23.98          68.67          42.67         -3.528          14.93          9.465          83.83          98.58          64.05           8.08
    0.4294              -59.92          23.97          68.67          42.68         -3.529          14.93          9.489          83.82          98.57          64.06          8.089
    0.4724              -59.92          23.97          68.66          42.68         -3.529          14.92          9.514          83.82          98.57          64.08          8.099
    0.5153              -59.92          23.96          68.66          42.68         -3.529          14.92          9.542          83.81          98.56          64.11          8.109
    0.5583              -59.92          23.95          68.65          42.69         -3.529          14.92          9.572           83.8          98.56          64.13           8.12
    0.6012              -59.92          23.94          68.65          42.69         -3.529          14.91          9.604          83.79          98.55          64.15          8.132
    0.6442              -59.92          23.93          68.64           42.7         -3.529          14.91          9.639          83.78          98.55          64.18          8.145
    0.6871              -59.91          23.92          68.63           42.7         -3.529          14.91          9.677          83.76          98.54          64.21          8.159
    0.7301              -59.91           23.9          68.62          42.71         -3.529           14.9          9.719          83.75          98.54          64.24          8.174
     0.773              -59.91          23.89          68.61          42.71         -3.529           14.9          9.764          83.74          98.53          64.28          8.191
    0.8159              -59.91          23.88           68.6          42.72         -3.529          14.89          9.813          83.72          98.52          64.32          8.209
    0.8589               -59.9          23.86          68.59          42.73          -3.53          14.89          9.868           83.7          98.51          64.36          8.229
    0.9018               -59.9          23.84          68.58          42.74          -3.53          14.88          9.928          83.68           98.5          64.41          8.252
    0.9448               -59.9          23.82          68.57          42.74          -3.53          14.87          9.994          83.66          98.49          64.46          8.276
    0.9877              -59.89           23.8          68.55          42.75          -3.53          14.86          10.07          83.64          98.48          64.51          8.303
     1.031              -59.89          23.78          68.54          42.76          -3.53          14.86          10.15          83.61          98.47          64.58          8.333
     1.074              -59.88          23.75          68.52          42.78         -3.531          14.85          10.24          83.58          98.45          64.65          8.367
     1.117              -59.88          23.72           68.5          42.79         -3.531          14.83          10.34          83.55          98.43          64.73          8.405
     1.159              -59.87          23.68          68.48          42.81         -3.531          14.82          10.46          83.51          98.42          64.82          8.447
     1.202              -59.87          23.65          68.45          42.82         -3.532          14.81          10.59          83.47           98.4          64.92          8.495
     1.245              -59.86           23.6          68.42          42.84         -3.532          14.79          10.73          83.42          98.37          65.03          8.549
     1.288              -59.85          23.55          68.39          42.87         -3.533          14.77           10.9          83.37          98.34          65.16          8.611
     1.331              -59.84          23.49          68.35          42.89         -3.533          14.75          11.09          83.31          98.31          65.31          8.682
     1.374              -59.83          23.43          68.31          42.92         -3.534          14.73          11.31          83.23          98.28          65.48          8.764
     1.417              -59.81          23.35          68.25          42.96         -3.534           14.7          11.57          83.15          98.23          65.69           8.86
      1.46               -59.8          23.26          68.19           43.0         -3.535          14.67          11.87          83.05          98.19          65.92          8.972
     1.503              -59.78          23.15          68.12          43.04         -3.536          14.63          12.23          82.94          98.13           66.2          9.103
     1.546              -59.76          23.03          68.04           43.1         -3.538          14.58          12.65           82.8          98.06          66.53           9.26
     1.589              -59.73          22.88          67.94          43.17         -3.539          14.53          13.16          82.64          97.98          66.92          9.447
     1.632               -59.7          22.69          67.81          43.25         -3.541          14.46          13.78          82.44          97.88           67.4          9.674
     1.675              -59.66          22.47          67.67          43.35         -3.543          14.38          14.53           82.2          97.75          67.98          9.952
     1.718              -59.61          22.19          67.48          43.48         -3.545          14.28          15.45           81.9           97.6           68.7          10.29
     1.761              -59.54          21.85          67.25          43.63         -3.549          14.15           16.6          81.52          97.42           69.6          10.72
     1.804              -59.47          21.41          66.96          43.83         -3.553          13.99          18.06          81.05          97.18          70.73          11.26
     1.847              -59.37          20.86          66.59          44.07         -3.558          13.79          19.91          80.45          96.88          72.17          11.94
      1.89              -59.24          20.15          66.12          44.39         -3.565          13.53          22.27          79.69           96.5          74.01          12.82
     1.932              -59.08          19.25          65.52           44.8         -3.573           13.2          25.31          78.71           96.0          76.37          13.94
     1.975              -58.87          18.09          64.74          45.32         -3.584          12.77          29.18          77.45          95.37          79.38          15.37
     2.018              -58.61          16.63          63.77          45.97         -3.598          12.24          34.06          75.88          94.58          83.18          17.18
     2.061               -58.3          14.86          62.59          46.77         -3.615          11.59           40.0          73.95          93.61           87.8          19.37
